<?xml version="1.0" standalone="no"?><!DOCTYPE svg PUBLIC "-//W3C//DTD SVG 1.1//EN" "http://www.w3.org/Graphics/SVG/1.1/DTD/svg11.dtd"><svg t="1679470834008" class="icon" viewBox="0 0 1301 1024" version="1.1" xmlns="http://www.w3.org/2000/svg" p-id="1061" xmlns:xlink="http://www.w3.org/1999/xlink" width="254.1015625" height="200"><path d="M0.118613 0h1301.333334v1024H0.118613z" fill="#FFFFFF" p-id="1062"></path><path d="M358.198613 843.52c-121.066667 0-275.2-15.466667-334.4-87.786667-34.346667-42.026667-31.466667-96.426667 8.32-161.493333 111.573333-181.333333 250.026667-194.026667 256-194.56a10.698667 10.698667 0 1 1 1.706667 21.333333c-1.92 0-134.08 13.226667-239.36 184.32-34.773333 56.64-38.186667 102.613333-10.133333 136.853334 96 117.333333 536.746667 83.413333 672.64 33.493333 145.493333-52.693333 496.746667-223.253333 566.08-279.893333a3.093333 3.093333 0 0 0 0-4.16l-81.386667-77.546667a10.666667 10.666667 0 0 1 14.72-15.36l81.066667 77.226667a21.333333 21.333333 0 0 1 2.133333 2.24 24.32 24.32 0 0 1-3.52 34.133333c-71.68 58.88-421.44 228.906667-571.733333 283.413333-64 23.36-206.72 47.253333-356.906667 47.786667z" p-id="1063"></path><path d="M440.331947 900.8a675.2 675.2 0 0 1-325.76-89.066667 10.688 10.688 0 1 1 11.306666-18.133333c1.6 0.96 160.853333 97.92 352 84.48 328.96-22.826667 731.2-285.12 778.666667-316.8v-44.053333a10.666667 10.666667 0 1 1 21.333333 0v49.706666a10.666667 10.666667 0 0 1-4.586666 8.746667c-3.84 2.986667-439.253333 298.986667-793.173334 323.733333-13.76 0.96-26.88 1.386667-39.786666 1.386667zM676.598613 639.146667a10.666667 10.666667 0 0 1-10.666666-10.666667l1.173333-41.813333a65.813333 65.813333 0 0 1 15.68-41.493334l76.586667-90.666666a2.24 2.24 0 0 0 0-2.56c-13.973333-33.066667-53.333333-42.666667-53.333334-42.666667a10.666667 10.666667 0 0 1-8.213333-9.706667c-2.453333-45.013333-16.213333-76.373333-40.746667-93.333333-38.293333-26.453333-91.626667-9.813333-91.626666-9.6a10.666667 10.666667 0 0 1-6.613334-20.266667c2.56-0.853333 64-20.16 110.506667 12.053334 28.906667 19.733333 45.546667 54.186667 49.6 102.293333a101.546667 101.546667 0 0 1 60.693333 52.8 23.786667 23.786667 0 0 1-3.733333 24.853333l-76.586667 90.666667a45.226667 45.226667 0 0 0-10.666666 27.84L687.26528 629.333333a10.666667 10.666667 0 0 1-10.666667 9.813334z" p-id="1064"></path><path d="M141.131947 695.786667a54.186667 54.186667 0 0 1-40.106667-14.4A45.44 45.44 0 0 1 96.118613 629.333333c19.946667-43.52 266.666667-316.906667 277.333334-328.213333 21.333333-23.786667 68.906667-18.026667 74.666666-17.28a9.706667 9.706667 0 0 1 3.52 1.066667c27.413333-26.56 53.333333-40.64 79.893334-34.24s67.093333 70.506667 70.186666 107.413333c29.333333 14.186667 43.946667 32 43.52 54.186667-2.026667 78.4-207.786667 172.586667-408.533333 254.186666-15.68 6.4-27.946667 11.306667-35.626667 14.72a155.2 155.2 0 0 1-59.946666 14.613334zM429.878613 304.106667c-14.293333 0-32.853333 2.24-41.6 11.306666C363.318613 341.333333 131.42528 601.813333 114.998613 637.866667a24.746667 24.746667 0 0 0 1.28 28.586666c9.386667 9.6 34.346667 13.333333 76.266667-4.906666 7.786667-3.306667 20.266667-8.426667 36.16-14.826667 97.28-39.573333 393.28-160 394.666667-234.666667 0-12.8-10.666667-24.426667-31.253334-34.56-14.506667 6.506667-69.333333 35.946667-110.72 58.026667-36.693333 19.626667-71.253333 38.186667-84.16 44.373333-17.28 8.426667-41.493333 9.066667-54.08-5.973333-9.386667-10.666667-14.293333-33.173333 15.573334-73.92l1.6-2.133333c26.026667-35.52 49.813333-68.16 72.533333-93.76z m88.64-33.6c-38.613333 0-86.293333 65.173333-141.013333 139.946666l-1.493333 2.133334c-19.413333 26.453333-21.333333 41.92-16.533334 47.68s17.706667 5.653333 28.48 0c12.48-5.973333 46.933333-24.426667 83.306667-43.946667 64.96-34.453333 94.186667-50.24 109.013333-56.853333-1.6-27.413333-37.76-84.053333-54.186666-88.106667a35.84 35.84 0 0 0-7.573334-0.853333z" p-id="1065"></path><path d="M303.371947 693.333333h-9.813334l-105.706666-8.213333a10.698667 10.698667 0 0 1 1.706666-21.333333l105.706667 8.213333a106.666667 106.666667 0 0 0 47.36-7.04l87.36-34.026667a114.88 114.88 0 0 1 40.64-8c71.893333-0.853333 348.586667-5.333333 420.373333-10.666666 78.08-5.653333 304.533333-197.653333 316.266667-225.813334-1.066667-119.04-152.106667-151.786667-198.506667-159.36a17.6 17.6 0 0 0-13.44 3.093334 1156.266667 1156.266667 0 0 1-113.386666 69.973333 10.794667 10.794667 0 1 1-10.666667-18.773333 1125.866667 1125.866667 0 0 0 111.253333-68.693334 39.786667 39.786667 0 0 1 29.12-6.72c50.666667 8 216.213333 44.693333 216.426667 181.333334 0 27.306667-130.56 128.64-136.106667 133.013333-42.666667 32.746667-146.453333 109.333333-200 113.173333-72.213333 5.226667-349.653333 9.813333-421.653333 10.666667a92.586667 92.586667 0 0 0-32.853333 6.506667l-87.36 34.026666a128 128 0 0 1-46.72 8.64z" p-id="1066"></path><path d="M703.26528 360h-4.373333a10.709333 10.709333 0 0 1 1.92-21.333333s29.866667 2.133333 89.173333-19.946667a10.698667 10.698667 0 0 1 7.466667 20.053333 283.2 283.2 0 0 1-94.186667 21.226667zM600.651947 288.96a10.666667 10.666667 0 0 1-10.666667-7.466667c-3.093333-10.666667-29.333333-99.84 18.986667-115.626666 46.506667-15.253333 67.946667 13.333333 68.906666 14.506666a10.666667 10.666667 0 1 1-16.426666 12.586667c0-0.64-13.76-17.066667-45.013334-6.826667-22.4 7.36-13.12 63.146667-5.12 88.96A10.666667 10.666667 0 0 1 603.74528 288a7.573333 7.573333 0 0 1-3.093333 0.96zM545.18528 160a10.666667 10.666667 0 0 1-7.36-2.986667 10.666667 10.666667 0 0 1 0-15.04l15.04-15.68a10.666667 10.666667 0 1 1 15.36 14.72l-15.04 15.68a10.666667 10.666667 0 0 1-8 3.306667z" p-id="1067"></path><path d="M600.011947 195.84a10.666667 10.666667 0 0 1-7.36-2.88l-44.266667-41.706667a10.709333 10.709333 0 1 1 14.72-15.573333l44.266667 41.706667a10.666667 10.666667 0 0 1 0 15.146666 10.666667 10.666667 0 0 1-7.36 3.306667zM834.46528 324.693333a10.666667 10.666667 0 0 1-4.586667-1.066666 10.666667 10.666667 0 0 1-5.013333-14.293334l9.28-19.626666a10.666667 10.666667 0 1 1 19.306667 8.96l-9.28 19.626666a10.666667 10.666667 0 0 1-9.706667 6.4z" p-id="1068"></path><path d="M835.638613 314.24a11.306667 11.306667 0 0 1-4.48-0.96L775.90528 288a10.688 10.688 0 1 1 8.96-19.413333l55.253333 25.28a10.666667 10.666667 0 0 1-4.48 20.373333zM668.278613 260.906667a30.08 30.08 0 0 1-22.933333-8.64c-7.573333-8.426667-8.64-21.333333-3.306667-38.613334a92.373333 92.373333 0 0 1 25.6-38.186666 41.92 41.92 0 0 1 32-13.653334A47.36 47.36 0 0 1 734.62528 181.333333a137.493333 137.493333 0 0 1 10.666667 14.08 27.52 27.52 0 0 1-6.506667 37.013334 122.133333 122.133333 0 0 1-56 26.773333 74.666667 74.666667 0 0 1-14.506667 1.706667z m29.76-77.866667a21.333333 21.333333 0 0 0-15.573333 7.786667 71.573333 71.573333 0 0 0-20.16 29.44c-3.306667 10.666667-2.346667 16.426667-1.173333 17.706666s3.306667 3.093333 17.28 0a101.866667 101.866667 0 0 0 47.04-22.08 6.4 6.4 0 0 0 1.92-8.746666 98.88 98.88 0 0 0-8.853334-11.946667 27.733333 27.733333 0 0 0-19.413333-11.946667z" p-id="1069"></path><path d="M684.918613 329.6a10.677333 10.677333 0 0 1-0.96-21.333333c18.346667-1.706667 68.906667-10.666667 82.453334-32.746667a22.826667 22.826667 0 0 0 1.173333-21.333333 10.666667 10.666667 0 0 1-0.746667-3.093334s-3.626667-11.946667-34.24-20.693333a10.666667 10.666667 0 1 1 5.76-20.48c40.853333 11.626667 48.213333 30.72 49.493334 37.76a43.626667 43.626667 0 0 1-3.306667 39.253333c-21.333333 34.666667-90.773333 42.026667-98.666667 42.666667zM810.78528 562.773333a30.506667 30.506667 0 0 1-21.333333-8.96 31.253333 31.253333 0 0 1-8.96-20.266666l-21.333334-82.88a10.688 10.688 0 1 1 20.693334-5.333334l21.333333 84.053334a11.413333 11.413333 0 0 1 0 2.666666 9.28 9.28 0 0 0 9.386667 9.386667c53.333333-1.493333 187.2-21.333333 305.706666-170.666667 1.813333-6.186667 8.533333-36.586667-35.733333-64-55.146667-34.133333-130.026667-43.84-140.48-39.04a10.666667 10.666667 0 0 1-14.72-2.346666 10.666667 10.666667 0 0 1 2.773333-14.72c18.666667-13.973333 108.373333 3.946667 163.946667 38.293333 64.64 40 43.84 90.986667 43.626667 91.52a8.426667 8.426667 0 0 1-1.493334 2.453333c-124.16 157.546667-266.666667 178.24-321.813333 179.84z" p-id="1070"></path></svg>